# xmcd CD database file
#
# Track frame offsets:
#	187
#	3240
#	25432
#	48692
#	69642
#
# Disc length: 1631 seconds
#
# Revision: 0
# Processed by: cddbd v1.5.1PL0 Copyright (c) Steve Scherf et al.
# Submitted via: CDex 1.51
#
DISCID=3e065d05
DTITLE=大西結花 - Greetings from the BIG WEST  YUKA FILE #2
DYEAR=1987
DGENRE=JPop
TTITLE0=OPENING THEME from YUKA FM19.6MHz
TTITLE1=チャンスは一度だけ -TAKE A CHANCE-
TTITLE2=哀しみのシャングリラ
TTITLE3=くちびるジャンピング・ジャック
TTITLE4=SONGS FROM THE BIG WEST  EXTENDED MEGA MIX
EXTD=YEAR: 1987
EXTT0=
EXTT1=
EXTT2=
EXTT3=
EXTT4=
PLAYORDER=
